<!-- icon666.com - MILLIONS vector ICONS FREE --><svg version="1.1" id="Layer_1" xmlns="http://www.w3.org/2000/svg" xmlns:xlink="http://www.w3.org/1999/xlink" x="0px" y="0px" viewBox="0 0 512 512" style="enable-background:new 0 0 512 512;" xml:space="preserve"><g><g><path d="M368.085,8.116c-43.699,0-84.847,19.901-112.085,53.726C228.762,28.017,187.613,8.116,143.915,8.116 C64.56,8.116,0,72.676,0,152.096c0.26,30.81,6.431,60.84,18.342,89.256c11.911,28.416,28.997,53.87,50.783,75.658L256,503.884 l186.875-186.875c21.786-21.786,38.872-47.241,50.783-75.658C505.57,212.936,511.74,182.906,512,152.03 C512,72.676,447.44,8.116,368.085,8.116z M431.827,305.962L256,481.79L80.174,305.962c-41.136-41.135-64.06-95.826-64.55-153.932 c0-70.74,57.551-128.292,128.292-128.292c42.155,0,81.652,20.783,105.653,55.594L256,88.66l6.432-9.327 c24.003-34.811,63.5-55.594,105.653-55.594c70.74,0,128.292,57.551,128.292,128.225 C495.887,210.136,472.962,264.827,431.827,305.962z"></path></g></g><g><g><path d="M40.031,152.535h15.623c0-48.953,39.947-88.766,87.858-88.766V48.146C86.226,48.146,40.031,95.249,40.031,152.535z"></path></g></g><g><g><rect x="40.398" y="168.159" width="15.623" height="15.623"></rect></g></g><g><g><rect x="244.965" y="370.397" transform="matrix(0.7071 -0.7071 0.7071 0.7071 -176.6174 330.0255)" width="130.204" height="15.623"></rect></g></g><g><g><rect x="364.796" y="304.338" transform="matrix(0.7071 -0.7071 0.7071 0.7071 -110.5605 357.382)" width="22.644" height="15.623"></rect></g></g></svg>